<svg viewBox="0 0 800 450" xmlns="http://www.w3.org/2000/svg">
  <defs>
    <!-- Background gradient -->
    <linearGradient id="bgGradient" x1="0%" y1="0%" x2="100%" y2="100%">
      <stop offset="0%" style="stop-color:#1a1a2e;stop-opacity:1" />
      <stop offset="50%" style="stop-color:#16213e;stop-opacity:1" />
      <stop offset="100%" style="stop-color:#0f3460;stop-opacity:1" />
    </linearGradient>
    
    <!-- Main gradient for the robot head -->
    <linearGradient id="robotGradient" x1="0%" y1="0%" x2="100%" y2="100%">
      <stop offset="0%" style="stop-color:#667eea;stop-opacity:1" />
      <stop offset="100%" style="stop-color:#764ba2;stop-opacity:1" />
    </linearGradient>
    
    <!-- Secondary gradient for accents -->
    <linearGradient id="accentGradient" x1="0%" y1="0%" x2="100%" y2="100%">
      <stop offset="0%" style="stop-color:#ff6b6b;stop-opacity:1" />
      <stop offset="100%" style="stop-color:#feca57;stop-opacity:1" />
    </linearGradient>
    
    <!-- Glow effect -->
    <linearGradient id="glowGradient" x1="0%" y1="0%" x2="100%" y2="100%">
      <stop offset="0%" style="stop-color:#48dbfb;stop-opacity:0.8" />
      <stop offset="100%" style="stop-color:#0abde3;stop-opacity:0.3" />
    </linearGradient>
    
    <!-- Circuit pattern gradient -->
    <linearGradient id="circuitGradient" x1="0%" y1="0%" x2="100%" y2="100%">
      <stop offset="0%" style="stop-color:#4cc9f0;stop-opacity:0.3" />
      <stop offset="100%" style="stop-color:#f72585;stop-opacity:0.3" />
    </linearGradient>
    
    <!-- Shadow filter -->
    <filter id="shadow" x="-50%" y="-50%" width="200%" height="200%">
      <feDropShadow dx="4" dy="6" stdDeviation="6" flood-color="rgba(0,0,0,0.4)"/>
    </filter>
    
    <!-- Glow filter -->
    <filter id="glow" x="-50%" y="-50%" width="200%" height="200%">
      <feGaussianBlur stdDeviation="4" result="coloredBlur"/>
      <feMerge> 
        <feMergeNode in="coloredBlur"/>
        <feMergeNode in="SourceGraphic"/>
      </feMerge>
    </filter>
    
    <!-- Strong glow filter -->
    <filter id="strongGlow" x="-100%" y="-100%" width="300%" height="300%">
      <feGaussianBlur stdDeviation="8" result="coloredBlur"/>
      <feMerge> 
        <feMergeNode in="coloredBlur"/>
        <feMergeNode in="SourceGraphic"/>
      </feMerge>
    </filter>
  </defs>
  
  <!-- Main background -->
  <rect width="800" height="450" fill="url(#bgGradient)" rx="12" ry="12" />
  
  <!-- Background decorative elements -->
  <circle cx="120" cy="80" r="40" fill="url(#accentGradient)" opacity="0.1" />
  <circle cx="680" cy="370" r="60" fill="url(#glowGradient)" opacity="0.15" />
  <circle cx="750" cy="100" r="30" fill="#48dbfb" opacity="0.2" />
  <circle cx="50" cy="350" r="35" fill="#f72585" opacity="0.2" />
  
  <!-- Circuit pattern background -->
  <g opacity="0.1">
    <path d="M50 200 L150 200 L150 250 L250 250 L250 150 L350 150" stroke="url(#circuitGradient)" stroke-width="2" fill="none"/>
    <path d="M450 300 L550 300 L550 200 L650 200 L650 100 L750 100" stroke="url(#circuitGradient)" stroke-width="2" fill="none"/>
    <circle cx="150" cy="200" r="3" fill="url(#circuitGradient)"/>
    <circle cx="250" cy="250" r="3" fill="url(#circuitGradient)"/>
    <circle cx="550" cy="300" r="3" fill="url(#circuitGradient)"/>
    <circle cx="650" cy="200" r="3" fill="url(#circuitGradient)"/>
  </g>
  
  <!-- Title -->
  <text x="400" y="60" font-family="Arial, sans-serif" font-size="36" font-weight="bold" text-anchor="middle" fill="#ffffff" filter="url(#glow)">
    AI Virtual Assistant
  </text>
  
  <!-- Subtitle -->
  <text x="400" y="85" font-family="Arial, sans-serif" font-size="16" text-anchor="middle" fill="#48dbfb" opacity="0.8">
    Voice-Enabled Smart Assistant
  </text>
  
  <!-- Main robot head - centered and larger -->
  <g transform="translate(400, 225)">
    <!-- Background glow -->
    <circle cx="0" cy="0" r="80" fill="url(#glowGradient)" opacity="0.3" filter="url(#strongGlow)"/>
    
    <!-- Main robot head -->
    <path d="M-50 -30 Q-50 -60 -20 -60 L20 -60 Q50 -60 50 -30 L50 30 Q50 60 20 60 L-20 60 Q-50 60 -50 30 Z" 
          fill="url(#robotGradient)" 
          filter="url(#shadow)"/>
    
    <!-- Robot antenna -->
    <rect x="-3" y="-75" width="6" height="15" fill="url(#accentGradient)" rx="3"/>
    <circle cx="0" cy="-80" r="6" fill="url(#accentGradient)" filter="url(#glow)">
      <animate attributeName="opacity" values="0.6;1;0.6" dur="2s" repeatCount="indefinite"/>
    </circle>
    
    <!-- Eyes -->
    <circle cx="-20" cy="-15" r="12" fill="#ffffff"/>
    <circle cx="20" cy="-15" r="12" fill="#ffffff"/>
    <circle cx="-20" cy="-15" r="8" fill="url(#accentGradient)" filter="url(#glow)"/>
    <circle cx="20" cy="-15" r="8" fill="url(#accentGradient)" filter="url(#glow)"/>
    <circle cx="-18" cy="-17" r="3" fill="#ffffff" opacity="0.9"/>
    <circle cx="22" cy="-17" r="3" fill="#ffffff" opacity="0.9"/>
    
    <!-- Nose sensor -->
    <rect x="-2" y="-5" width="4" height="8" fill="#48dbfb" rx="2" opacity="0.8"/>
    
    <!-- Mouth/Speaker grille -->
    <rect x="-30" y="20" width="60" height="16" fill="#2c3e50" rx="8"/>
    <rect x="-26" y="23" width="8" height="10" fill="url(#accentGradient)" rx="1"/>
    <rect x="-14" y="23" width="8" height="10" fill="url(#accentGradient)" rx="1"/>
    <rect x="-2" y="23" width="8" height="10" fill="url(#accentGradient)" rx="1"/>
    <rect x="10" y="23" width="8" height="10" fill="url(#accentGradient)" rx="1"/>
    <rect x="22" y="23" width="4" height="10" fill="url(#accentGradient)" rx="1"/>
    
    <!-- Side panels -->
    <rect x="-65" y="-10" width="15" height="40" fill="url(#robotGradient)" rx="7" opacity="0.9"/>
    <rect x="50" y="-10" width="15" height="40" fill="url(#robotGradient)" rx="7" opacity="0.9"/>
    
    <!-- Decorative elements on side panels -->
    <circle cx="-57" cy="10" r="4" fill="url(#accentGradient)" filter="url(#glow)"/>
    <circle cx="57" cy="10" r="4" fill="url(#accentGradient)" filter="url(#glow)"/>
  </g>
  
  <!-- Left side voice wave indicators -->
  <g opacity="0.8">
    <path d="M150 200 Q180 180 210 200 Q180 220 150 200" fill="none" stroke="url(#accentGradient)" stroke-width="3" stroke-linecap="round">
      <animate attributeName="opacity" values="0.3;1;0.3" dur="2s" repeatCount="indefinite"/>
    </path>
    <path d="M130 200 Q170 170 210 200 Q170 230 130 200" fill="none" stroke="url(#accentGradient)" stroke-width="3" stroke-linecap="round">
      <animate attributeName="opacity" values="0.3;1;0.3" dur="2s" repeatCount="indefinite" begin="0.5s"/>
    </path>
    <path d="M110 200 Q160 160 210 200 Q160 240 110 200" fill="none" stroke="url(#accentGradient)" stroke-width="3" stroke-linecap="round">
      <animate attributeName="opacity" values="0.3;1;0.3" dur="2s" repeatCount="indefinite" begin="1s"/>
    </path>
  </g>
  
  <!-- Right side voice wave indicators -->
  <g opacity="0.8">
    <path d="M650 200 Q620 180 590 200 Q620 220 650 200" fill="none" stroke="url(#accentGradient)" stroke-width="3" stroke-linecap="round">
      <animate attributeName="opacity" values="0.3;1;0.3" dur="2s" repeatCount="indefinite" begin="0.2s"/>
    </path>
    <path d="M670 200 Q630 170 590 200 Q630 230 670 200" fill="none" stroke="url(#accentGradient)" stroke-width="3" stroke-linecap="round">
      <animate attributeName="opacity" values="0.3;1;0.3" dur="2s" repeatCount="indefinite" begin="0.7s"/>
    </path>
    <path d="M690 200 Q640 160 590 200 Q640 240 690 200" fill="none" stroke="url(#accentGradient)" stroke-width="3" stroke-linecap="round">
      <animate attributeName="opacity" values="0.3;1;0.3" dur="2s" repeatCount="indefinite" begin="1.2s"/>
    </path>
  </g>
  
  <!-- Microphone icon - bottom left -->
  <g transform="translate(200, 380)">
    <rect x="-12" y="-20" width="24" height="28" fill="url(#robotGradient)" rx="12" filter="url(#shadow)"/>
    <rect x="-9" y="-16" width="18" height="20" fill="#ffffff" rx="9"/>
    <rect x="-6" y="-13" width="12" height="14" fill="url(#accentGradient)" rx="6"/>
    <line x1="0" y1="8" x2="0" y2="20" stroke="url(#robotGradient)" stroke-width="4" stroke-linecap="round"/>
    <line x1="-12" y1="20" x2="12" y2="20" stroke="url(#robotGradient)" stroke-width="4" stroke-linecap="round"/>
    <text x="0" y="35" font-family="Arial, sans-serif" font-size="12" text-anchor="middle" fill="#48dbfb">Voice Input</text>
  </g>
  
  <!-- Speaker icon - bottom right -->
  <g transform="translate(600, 380)">
    <rect x="-8" y="-8" width="16" height="16" fill="url(#robotGradient)" rx="2" filter="url(#shadow)"/>
    <path d="M-4 -4 L-4 4 L0 4 L6 8 L6 -8 L0 -4 Z" fill="url(#accentGradient)"/>
    <path d="M8 -6 Q12 -2 8 2" fill="none" stroke="url(#accentGradient)" stroke-width="2" stroke-linecap="round"/>
    <path d="M10 -8 Q16 -2 10 4" fill="none" stroke="url(#accentGradient)" stroke-width="2" stroke-linecap="round"/>
    <text x="0" y="25" font-family="Arial, sans-serif" font-size="12" text-anchor="middle" fill="#48dbfb">Voice Output</text>
  </g>
  
  <!-- Brain/AI icon - top center -->
  <g transform="translate(400, 130)">
    <path d="M-15 -5 Q-15 -15 -5 -15 Q5 -15 5 -10 Q15 -10 15 0 Q15 10 5 10 Q-5 10 -5 5 Q-15 5 -15 -5 Z" 
          fill="url(#glowGradient)" opacity="0.8" filter="url(#glow)"/>
    <circle cx="-8" cy="-5" r="2" fill="#ffffff"/>
    <circle cx="0" cy="-8" r="2" fill="#ffffff"/>
    <circle cx="8" cy="-3" r="2" fill="#ffffff"/>
    <circle cx="5" cy="3" r="2" fill="#ffffff"/>
    <circle cx="-5" cy="2" r="2" fill="#ffffff"/>
    <text x="0" y="25" font-family="Arial, sans-serif" font-size="12" text-anchor="middle" fill="#48dbfb">AI Processing</text>
  </g>
  
  <!-- Footer text -->
  <text x="400" y="420" font-family="Arial, sans-serif" font-size="14" text-anchor="middle" fill="#6c757d">
    Powered by Advanced AI • Voice Recognition • Natural Language Processing
  </text>
</svg>
