<svg xmlns="http://www.w3.org/2000/svg" viewBox="0 0 400 300" width="400" height="300">
  <!-- Background with gradient -->
  <defs>
    <linearGradient id="bgGradient" x1="0%" y1="0%" x2="100%" y2="100%">
      <stop offset="0%" style="stop-color:#667eea;stop-opacity:1" />
      <stop offset="100%" style="stop-color:#764ba2;stop-opacity:1" />
    </linearGradient>
    
    <!-- Shield gradient -->
    <linearGradient id="shieldGradient" x1="0%" y1="0%" x2="100%" y2="100%">
      <stop offset="0%" style="stop-color:#ffffff;stop-opacity:0.9" />
      <stop offset="100%" style="stop-color:#f8f9fa;stop-opacity:0.8" />
    </linearGradient>
    
    <!-- Lock gradient -->
    <linearGradient id="lockGradient" x1="0%" y1="0%" x2="100%" y2="100%">
      <stop offset="0%" style="stop-color:#667eea;stop-opacity:1" />
      <stop offset="100%" style="stop-color:#764ba2;stop-opacity:1" />
    </linearGradient>
    
    <!-- Glow effect -->
    <filter id="glow">
      <feGaussianBlur stdDeviation="3" result="coloredBlur"/>
      <feMerge> 
        <feMergeNode in="coloredBlur"/>
        <feMergeNode in="SourceGraphic"/>
      </feMerge>
    </filter>
    
    <!-- Drop shadow -->
    <filter id="dropshadow" x="-50%" y="-50%" width="200%" height="200%">
      <feDropShadow dx="0" dy="4" stdDeviation="4" flood-color="#000000" flood-opacity="0.2"/>
    </filter>
  </defs>
  
  <!-- Background -->
  <rect width="400" height="300" rx="20" ry="20" fill="url(#bgGradient)"/>
  
  <!-- Decorative circles -->
  <circle cx="80" cy="60" r="20" fill="#ffffff" opacity="0.1"/>
  <circle cx="320" cy="240" r="25" fill="#ffffff" opacity="0.1"/>
  <circle cx="350" cy="80" r="15" fill="#ffffff" opacity="0.15"/>
  <circle cx="50" cy="220" r="18" fill="#ffffff" opacity="0.1"/>
  
  <!-- Main shield container -->
  <g transform="translate(200, 150)">
    <!-- Shield background -->
    <path d="M-50,-60 Q-50,-70 -40,-70 L40,-70 Q50,-70 50,-60 L50,30 Q50,50 30,60 L0,70 L-30,60 Q-50,50 -50,30 Z" 
          fill="url(#shieldGradient)" 
          stroke="#ffffff" 
          stroke-width="2" 
          filter="url(#dropshadow)"/>
    
    <!-- Lock icon -->
    <g transform="translate(0, -10)">
      <!-- Lock body -->
      <rect x="-15" y="5" width="30" height="25" rx="3" ry="3" 
            fill="url(#lockGradient)" 
            filter="url(#glow)"/>
      
      <!-- Lock shackle -->
      <path d="M-10,-10 Q-10,-20 0,-20 Q10,-20 10,-10 L10,5" 
            fill="none" 
            stroke="url(#lockGradient)" 
            stroke-width="4" 
            stroke-linecap="round"/>
      
      <!-- Lock keyhole -->
      <circle cx="0" cy="15" r="3" fill="#ffffff" opacity="0.9"/>
      <rect x="-1" y="18" width="2" height="6" rx="1" fill="#ffffff" opacity="0.9"/>
    </g>
    
    <!-- User icons around shield -->
    <g opacity="0.7">
      <!-- User icon 1 -->
      <g transform="translate(-70, -20) scale(0.8)">
        <circle cx="0" cy="-5" r="8" fill="#ffffff"/>
        <path d="M-12,10 Q-12,5 -8,3 Q-4,1 0,1 Q4,1 8,3 Q12,5 12,10 L12,15 L-12,15 Z" fill="#ffffff"/>
      </g>
      
      <!-- User icon 2 -->
      <g transform="translate(70, -20) scale(0.8)">
        <circle cx="0" cy="-5" r="8" fill="#ffffff"/>
        <path d="M-12,10 Q-12,5 -8,3 Q-4,1 0,1 Q4,1 8,3 Q12,5 12,10 L12,15 L-12,15 Z" fill="#ffffff"/>
      </g>
      
      <!-- User icon 3 -->
      <g transform="translate(0, -80) scale(0.8)">
        <circle cx="0" cy="-5" r="8" fill="#ffffff"/>
        <path d="M-12,10 Q-12,5 -8,3 Q-4,1 0,1 Q4,1 8,3 Q12,5 12,10 L12,15 L-12,15 Z" fill="#ffffff"/>
      </g>
    </g>
    
    <!-- Connection lines -->
    <g stroke="#ffffff" stroke-width="1" opacity="0.4" fill="none">
      <line x1="-55" y1="-20" x2="-50" y2="-30"/>
      <line x1="55" y1="-20" x2="50" y2="-30"/>
      <line x1="0" y1="-65" x2="0" y2="-60"/>
    </g>
  </g>
  
  <!-- Project title -->
  <text x="200" y="240" 
        font-family="Arial, sans-serif" 
        font-size="24" 
        font-weight="bold" 
        text-anchor="middle" 
        fill="#ffffff" 
        filter="url(#dropshadow)">
    SecureAuth
  </text>
  
  <!-- Subtitle -->
  <text x="200" y="265" 
        font-family="Arial, sans-serif" 
        font-size="14" 
        text-anchor="middle" 
        fill="#ffffff" 
        opacity="0.9">
    Firebase Authentication System
  </text>
  
  <!-- Tech badges -->
  <g transform="translate(50, 50)">
    <!-- Firebase badge -->
    <rect x="0" y="0" width="60" height="20" rx="10" fill="#ffffff" opacity="0.2"/>
    <text x="30" y="14" font-family="Arial, sans-serif" font-size="10" text-anchor="middle" fill="#ffffff" font-weight="bold">Firebase</text>
  </g>
  
  <g transform="translate(120, 50)">
    <!-- JavaScript badge -->
    <rect x="0" y="0" width="60" height="20" rx="10" fill="#ffffff" opacity="0.2"/>
    <text x="30" y="14" font-family="Arial, sans-serif" font-size="10" text-anchor="middle" fill="#ffffff" font-weight="bold">JavaScript</text>
  </g>
  
  <g transform="translate(290, 50)">
    <!-- CSS3 badge -->
    <rect x="0" y="0" width="40" height="20" rx="10" fill="#ffffff" opacity="0.2"/>
    <text x="20" y="14" font-family="Arial, sans-serif" font-size="10" text-anchor="middle" fill="#ffffff" font-weight="bold">CSS3</text>
  </g>
</svg>
