<svg width="1200" height="630" viewBox="0 0 1200 630" xmlns="http://www.w3.org/2000/svg">
  <defs>
    <linearGradient id="bg" x1="0" y1="0" x2="1" y2="1">
      <stop offset="0" stop-color="#667eea"/>
      <stop offset="1" stop-color="#764ba2"/>
    </linearGradient>
    <linearGradient id="card" x1="0" y1="0" x2="1" y2="1">
      <stop offset="0" stop-color="#ffffff"/>
      <stop offset="1" stop-color="#f8f9ff"/>
    </linearGradient>
  </defs>
  
  <rect width="1200" height="630" fill="url(#bg)"/>
  
  <rect x="100" y="100" width="1000" height="430" rx="20" fill="url(#card)" stroke="#ffffff" stroke-width="2" stroke-opacity="0.3"/>
  
  <text x="600" y="180" text-anchor="middle" fill="#2d3748" font-family="Arial" font-size="54" font-weight="bold">Internet Speed Test</text>
  
  <text x="600" y="220" text-anchor="middle" fill="#4a5568" font-family="Arial" font-size="24">Test your connection speed instantly</text>
  
  <circle cx="400" cy="350" r="80" fill="none" stroke="#e2e8f0" stroke-width="8"/>
  <circle cx="400" cy="350" r="80" fill="none" stroke="#667eea" stroke-width="8" stroke-dasharray="377" stroke-dashoffset="94" transform="rotate(-90 400 350)"/>
  
  <circle cx="400" cy="350" r="15" fill="#667eea"/>
  
  <text x="400" y="345" text-anchor="middle" fill="#2d3748" font-family="Arial" font-size="28" font-weight="bold">89</text>
  <text x="400" y="365" text-anchor="middle" fill="#4a5568" font-family="Arial" font-size="16">Mbps</text>
  
  <rect x="550" y="300" width="50" height="50" rx="8" fill="#10b981" fill-opacity="0.1"/>
  <path d="M575 310 L575 335 M568 328 L575 335 L582 328" stroke="#10b981" stroke-width="3" fill="none"/>
  <text x="610" y="320" fill="#2d3748" font-family="Arial" font-size="18" font-weight="bold">Download</text>
  <text x="610" y="340" fill="#4a5568" font-family="Arial" font-size="14">Fast and Reliable</text>
  
  <rect x="550" y="370" width="50" height="50" rx="8" fill="#3b82f6" fill-opacity="0.1"/>
  <path d="M575 405 L575 380 M568 387 L575 380 L582 387" stroke="#3b82f6" stroke-width="3" fill="none"/>
  <text x="610" y="390" fill="#2d3748" font-family="Arial" font-size="18" font-weight="bold">Upload</text>
  <text x="610" y="410" fill="#4a5568" font-family="Arial" font-size="14">Quick Test</text>
  
  <rect x="750" y="335" width="50" height="50" rx="8" fill="#f59e0b" fill-opacity="0.1"/>
  <circle cx="775" cy="360" r="3" fill="#f59e0b"/>
  <circle cx="775" cy="360" r="8" fill="none" stroke="#f59e0b" stroke-width="2" stroke-opacity="0.7"/>
  <circle cx="775" cy="360" r="13" fill="none" stroke="#f59e0b" stroke-width="1" stroke-opacity="0.4"/>
  <text x="810" y="355" fill="#2d3748" font-family="Arial" font-size="18" font-weight="bold">Ping</text>
  <text x="810" y="375" fill="#4a5568" font-family="Arial" font-size="14">Low Latency</text>
  
  <text x="600" y="570" text-anchor="middle" fill="#ffffff" font-family="Arial" font-size="18" fill-opacity="0.9">Powered by OpenSpeedTest - Built by Piyush Kumar Chaurasiya</text>
</svg>
