<svg xmlns="http://www.w3.org/2000/svg" viewBox="0 0 400 200" width="400" height="200">
  <!-- Background gradient -->
  <defs>
    <linearGradient id="bgGradient" x1="0%" y1="0%" x2="100%" y2="100%">
      <stop offset="0%" style="stop-color:#0f766e;stop-opacity:1" />
      <stop offset="50%" style="stop-color:#059669;stop-opacity:1" />
      <stop offset="100%" style="stop-color:#047857;stop-opacity:1" />
    </linearGradient>
    
    <!-- Money gradient -->
    <linearGradient id="moneyGradient" x1="0%" y1="0%" x2="100%" y2="100%">
      <stop offset="0%" style="stop-color:#fbbf24;stop-opacity:1" />
      <stop offset="100%" style="stop-color:#f59e0b;stop-opacity:1" />
    </linearGradient>
    
    <!-- Calculator screen gradient -->
    <linearGradient id="screenGradient" x1="0%" y1="0%" x2="100%" y2="100%">
      <stop offset="0%" style="stop-color:#1f2937;stop-opacity:1" />
      <stop offset="100%" style="stop-color:#111827;stop-opacity:1" />
    </linearGradient>
    
    <!-- Text shadow filter -->
    <filter id="textShadow" x="-50%" y="-50%" width="200%" height="200%">
      <feDropShadow dx="2" dy="2" stdDeviation="3" flood-color="#000000" flood-opacity="0.5"/>
    </filter>
    
    <!-- Glow effect -->
    <filter id="glow" x="-50%" y="-50%" width="200%" height="200%">
      <feGaussianBlur stdDeviation="2" result="coloredBlur"/>
      <feMerge> 
        <feMergeNode in="coloredBlur"/>
        <feMergeNode in="SourceGraphic"/>
      </feMerge>
    </filter>
  </defs>
  
  <!-- Background -->
  <rect width="400" height="200" fill="url(#bgGradient)" rx="10" ry="10"/>
  
  <!-- Calculator interface mockup -->
  <g transform="translate(80, 100)">
    <!-- Calculator body -->
    <rect x="-40" y="-50" width="80" height="80" fill="rgba(255,255,255,0.95)" rx="8" stroke="#d1d5db" stroke-width="1"/>
    
    <!-- Calculator screen -->
    <rect x="-35" y="-40" width="70" height="25" fill="url(#screenGradient)" rx="4"/>
    
    <!-- Display text -->
    <text x="0" y="-23" text-anchor="middle" font-family="monospace" font-size="10" font-weight="bold" fill="#10b981">$125.50</text>
    
    <!-- Calculator buttons (simplified) -->
    <g transform="translate(0, -5)">
      <!-- Top row -->
      <rect x="-25" y="0" width="12" height="8" fill="#f3f4f6" rx="2" stroke="#d1d5db"/>
      <rect x="-10" y="0" width="12" height="8" fill="#f3f4f6" rx="2" stroke="#d1d5db"/>
      <rect x="5" y="0" width="12" height="8" fill="#f3f4f6" rx="2" stroke="#d1d5db"/>
      
      <!-- Bottom row -->
      <rect x="-25" y="12" width="12" height="8" fill="#f3f4f6" rx="2" stroke="#d1d5db"/>
      <rect x="-10" y="12" width="12" height="8" fill="#10b981" rx="2"/>
      <rect x="5" y="12" width="12" height="8" fill="#f3f4f6" rx="2" stroke="#d1d5db"/>
      
      <!-- Button labels -->
      <text x="-19" y="5" text-anchor="middle" font-size="6" fill="#374151">15%</text>
      <text x="-4" y="5" text-anchor="middle" font-size="6" fill="#374151">20%</text>
      <text x="11" y="5" text-anchor="middle" font-size="6" fill="#374151">25%</text>
      <text x="-4" y="17" text-anchor="middle" font-size="6" fill="white">✓</text>
    </g>
  </g>
  
  <!-- Money bills/coins -->
  <g transform="translate(200, 70)">
    <!-- Dollar bill -->
    <rect x="-30" y="-15" width="60" height="25" fill="url(#moneyGradient)" rx="3" stroke="#d97706" stroke-width="1"/>
    <text x="0" y="-2" text-anchor="middle" font-family="serif" font-size="14" font-weight="bold" fill="white">$</text>
    <circle cx="-15" cy="-2" r="8" fill="none" stroke="white" stroke-width="1" opacity="0.7"/>
    <circle cx="15" cy="-2" r="8" fill="none" stroke="white" stroke-width="1" opacity="0.7"/>
  </g>
  
  <!-- Tip percentage indicators -->
  <g transform="translate(320, 90)">
    <!-- Tip buttons -->
    <rect x="-25" y="-10" width="20" height="12" fill="rgba(255,255,255,0.9)" rx="4" stroke="#10b981" stroke-width="2"/>
    <text x="-15" y="-2" text-anchor="middle" font-size="10" font-weight="bold" fill="#10b981">15%</text>
    
    <rect x="-25" y="5" width="20" height="12" fill="rgba(255,255,255,0.7)" rx="4" stroke="#d1d5db"/>
    <text x="-15" y="13" text-anchor="middle" font-size="10" font-weight="bold" fill="#6b7280">20%</text>
    
    <rect x="-25" y="20" width="20" height="12" fill="rgba(255,255,255,0.7)" rx="4" stroke="#d1d5db"/>
    <text x="-15" y="28" text-anchor="middle" font-size="10" font-weight="bold" fill="#6b7280">25%</text>
  </g>
  
  <!-- Split calculation visual -->
  <g transform="translate(140, 140)">
    <!-- Bill split icons -->
    <circle cx="-15" cy="0" r="8" fill="rgba(255,255,255,0.9)" stroke="#10b981" stroke-width="2"/>
    <text x="-15" y="3" text-anchor="middle" font-size="8" fill="#10b981">1</text>
    
    <circle cx="0" cy="0" r="8" fill="rgba(255,255,255,0.9)" stroke="#10b981" stroke-width="2"/>
    <text x="0" y="3" text-anchor="middle" font-size="8" fill="#10b981">2</text>
    
    <circle cx="15" cy="0" r="8" fill="rgba(255,255,255,0.9)" stroke="#10b981" stroke-width="2"/>
    <text x="15" y="3" text-anchor="middle" font-size="8" fill="#10b981">3</text>
    
    <!-- Division arrows -->
    <path d="M -8 -8 L -2 -8" stroke="white" stroke-width="2" opacity="0.8"/>
    <path d="M 7 -8 L 2 -8" stroke="white" stroke-width="2" opacity="0.8"/>
  </g>
  
  <!-- Receipt mockup -->
  <g transform="translate(260, 130)">
    <rect x="-20" y="-25" width="40" height="50" fill="rgba(255,255,255,0.95)" rx="2" stroke="#d1d5db"/>
    <!-- Receipt lines -->
    <line x1="-15" y1="-18" x2="15" y2="-18" stroke="#9ca3af" stroke-width="1"/>
    <line x1="-15" y1="-12" x2="10" y2="-12" stroke="#9ca3af" stroke-width="1"/>
    <line x1="-15" y1="-6" x2="12" y2="-6" stroke="#9ca3af" stroke-width="1"/>
    <line x1="-15" y1="0" x2="8" y2="0" stroke="#9ca3af" stroke-width="1"/>
    <!-- Total line -->
    <line x1="-15" y1="6" x2="15" y2="6" stroke="#10b981" stroke-width="2"/>
    <text x="0" y="15" text-anchor="middle" font-size="8" font-weight="bold" fill="#10b981">$31.38</text>
    
    <!-- Receipt serrated edge -->
    <path d="M -20 25 L -18 23 L -16 25 L -14 23 L -12 25 L -10 23 L -8 25 L -6 23 L -4 25 L -2 23 L 0 25 L 2 23 L 4 25 L 6 23 L 8 25 L 10 23 L 12 25 L 14 23 L 16 25 L 18 23 L 20 25" 
          stroke="#d1d5db" fill="none"/>
  </g>
  
  <!-- Service quality stars -->
  <g transform="translate(50, 150)">
    <!-- Star ratings -->
    <g fill="#fbbf24" stroke="#f59e0b" stroke-width="1">
      <polygon points="8,2 10,8 16,8 11,12 13,18 8,14 3,18 5,12 0,8 6,8" transform="scale(0.4)"/>
      <polygon points="8,2 10,8 16,8 11,12 13,18 8,14 3,18 5,12 0,8 6,8" transform="translate(10,0) scale(0.4)"/>
      <polygon points="8,2 10,8 16,8 11,12 13,18 8,14 3,18 5,12 0,8 6,8" transform="translate(20,0) scale(0.4)"/>
      <polygon points="8,2 10,8 16,8 11,12 13,18 8,14 3,18 5,12 0,8 6,8" transform="translate(30,0) scale(0.4)" fill="#d1d5db"/>
      <polygon points="8,2 10,8 16,8 11,12 13,18 8,14 3,18 5,12 0,8 6,8" transform="translate(40,0) scale(0.4)" fill="#d1d5db"/>
    </g>
    <text x="25" y="12" text-anchor="middle" font-size="8" fill="white" opacity="0.8">Service</text>
  </g>
  
  <!-- Mathematical symbols -->
  <g transform="translate(350, 140)" fill="rgba(255,255,255,0.6)" font-family="Arial" font-size="16" font-weight="bold">
    <text x="0" y="0">+</text>
    <text x="0" y="-20">%</text>
    <text x="0" y="20">÷</text>
  </g>
  
  <!-- Main title -->
  <text x="200" y="40" text-anchor="middle" font-family="Arial, sans-serif" font-size="24" font-weight="bold" fill="white" filter="url(#textShadow)">Smart Tip</text>
  
  <!-- Subtitle -->
  <text x="200" y="170" text-anchor="middle" font-family="Arial, sans-serif" font-size="16" font-weight="normal" fill="white" opacity="0.9" filter="url(#textShadow)">Calculator</text>
  
  <!-- Feature text -->
  <text x="200" y="185" text-anchor="middle" font-family="Arial, sans-serif" font-size="10" fill="white" opacity="0.8">Split Bills • Service Quality • Tax Calculator • Multi-Currency</text>
  
  <!-- Corner accent elements -->
  <circle cx="30" cy="30" r="2" fill="white" opacity="0.4"/>
  <circle cx="370" cy="30" r="2" fill="white" opacity="0.4"/>
  <circle cx="30" cy="170" r="2" fill="white" opacity="0.4"/>
  <circle cx="370" cy="170" r="2" fill="white" opacity="0.4"/>
  
  <!-- Connecting lines for visual flow -->
  <g stroke="rgba(255,255,255,0.3)" stroke-width="1" fill="none">
    <line x1="120" y1="100" x2="160" y2="80"/>
    <line x1="240" y1="80" x2="280" y2="100"/>
    <line x1="180" y1="130" x2="220" y2="130"/>
  </g>
</svg>
