<svg xmlns="http://www.w3.org/2000/svg" viewBox="0 0 400 200" width="400" height="200">
  <!-- Background gradient -->
  <defs>
    <linearGradient id="bgGradient" x1="0%" y1="0%" x2="100%" y2="100%">
      <stop offset="0%" style="stop-color:#1a1a2e;stop-opacity:1" />
      <stop offset="50%" style="stop-color:#16213e;stop-opacity:1" />
      <stop offset="100%" style="stop-color:#0f3460;stop-opacity:1" />
    </linearGradient>
    
    <!-- Color wheel gradient -->
    <linearGradient id="colorWheel" x1="0%" y1="0%" x2="100%" y2="0%">
      <stop offset="0%" style="stop-color:#ff0000;stop-opacity:1" />
      <stop offset="16.66%" style="stop-color:#ffff00;stop-opacity:1" />
      <stop offset="33.33%" style="stop-color:#00ff00;stop-opacity:1" />
      <stop offset="50%" style="stop-color:#00ffff;stop-opacity:1" />
      <stop offset="66.66%" style="stop-color:#0000ff;stop-opacity:1" />
      <stop offset="83.33%" style="stop-color:#ff00ff;stop-opacity:1" />
      <stop offset="100%" style="stop-color:#ff0000;stop-opacity:1" />
    </linearGradient>
    
    <!-- Saturation/Lightness gradient -->
    <linearGradient id="satGradient" x1="0%" y1="0%" x2="100%" y2="0%">
      <stop offset="0%" style="stop-color:#ffffff;stop-opacity:1" />
      <stop offset="100%" style="stop-color:#ff0000;stop-opacity:1" />
    </linearGradient>
    
    <linearGradient id="lightGradient" x1="0%" y1="0%" x2="0%" y2="100%">
      <stop offset="0%" style="stop-color:#000000;stop-opacity:0" />
      <stop offset="100%" style="stop-color:#000000;stop-opacity:1" />
    </linearGradient>
    
    <!-- Text shadow filter -->
    <filter id="textShadow" x="-50%" y="-50%" width="200%" height="200%">
      <feDropShadow dx="2" dy="2" stdDeviation="3" flood-color="#000000" flood-opacity="0.5"/>
    </filter>
    
    <!-- Glow effect -->
    <filter id="glow" x="-50%" y="-50%" width="200%" height="200%">
      <feGaussianBlur stdDeviation="3" result="coloredBlur"/>
      <feMerge> 
        <feMergeNode in="coloredBlur"/>
        <feMergeNode in="SourceGraphic"/>
      </feMerge>
    </filter>
  </defs>
  
  <!-- Background -->
  <rect width="400" height="200" fill="url(#bgGradient)" rx="10" ry="10"/>
  
  <!-- Color picker interface mockup -->
  <g transform="translate(200, 100)">
    <!-- Main color selection area -->
    <rect x="-80" y="-40" width="120" height="60" fill="url(#satGradient)" rx="4"/>
    <rect x="-80" y="-40" width="120" height="60" fill="url(#lightGradient)" rx="4" opacity="0.7"/>
    
    <!-- Color picker crosshair -->
    <g transform="translate(20, -10)">
      <circle cx="0" cy="0" r="6" fill="none" stroke="white" stroke-width="2" filter="url(#glow)"/>
      <circle cx="0" cy="0" r="6" fill="none" stroke="black" stroke-width="1"/>
    </g>
    
    <!-- Hue slider -->
    <rect x="-80" y="35" width="120" height="12" fill="url(#colorWheel)" rx="6"/>
    <!-- Slider thumb -->
    <circle cx="-20" cy="41" r="8" fill="white" stroke="#333" stroke-width="2" filter="url(#glow)"/>
  </g>
  
  <!-- Color palette swatches -->
  <g transform="translate(320, 100)">
    <!-- Color swatches -->
    <rect x="-25" y="-30" width="15" height="15" fill="#ff6b6b" rx="2"/>
    <rect x="-6" y="-30" width="15" height="15" fill="#4ecdc4" rx="2"/>
    <rect x="13" y="-30" width="15" height="15" fill="#45b7d1" rx="2"/>
    
    <rect x="-25" y="-12" width="15" height="15" fill="#96ceb4" rx="2"/>
    <rect x="-6" y="-12" width="15" height="15" fill="#feca57" rx="2"/>
    <rect x="13" y="-12" width="15" height="15" fill="#ff9ff3" rx="2"/>
    
    <rect x="-25" y="6" width="15" height="15" fill="#54a0ff" rx="2"/>
    <rect x="-6" y="6" width="15" height="15" fill="#5f27cd" rx="2"/>
    <rect x="13" y="6" width="15" height="15" fill="#00d2d3" rx="2"/>
    
    <rect x="-25" y="24" width="15" height="15" fill="#ff6348" rx="2"/>
    <rect x="-6" y="24" width="15" height="15" fill="#2ed573" rx="2"/>
    <rect x="13" y="24" width="15" height="15" fill="#ffa502" rx="2"/>
  </g>
  
  <!-- Color values display mockup -->
  <g transform="translate(80, 100)">
    <!-- HEX value box -->
    <rect x="-35" y="-25" width="70" height="20" fill="rgba(255,255,255,0.9)" rx="4" stroke="#ddd"/>
    <text x="0" y="-12" text-anchor="middle" font-family="monospace" font-size="12" font-weight="bold" fill="#333">#FF6B6B</text>
    
    <!-- RGB value box -->
    <rect x="-35" y="0" width="70" height="16" fill="rgba(255,255,255,0.8)" rx="3" stroke="#ddd"/>
    <text x="0" y="10" text-anchor="middle" font-family="monospace" font-size="10" fill="#666">RGB(255,107,107)</text>
    
    <!-- HSL value box -->
    <rect x="-35" y="20" width="70" height="16" fill="rgba(255,255,255,0.8)" rx="3" stroke="#ddd"/>
    <text x="0" y="30" text-anchor="middle" font-family="monospace" font-size="10" fill="#666">HSL(0,100%,71%)</text>
  </g>
  
  <!-- Decorative elements -->
  <!-- Pipette/eyedropper icon -->
  <g transform="translate(50, 50)">
    <path d="M 0 0 L 8 8 L 6 10 L -2 2 Z" fill="white" opacity="0.8"/>
    <circle cx="10" cy="10" r="3" fill="white" opacity="0.6"/>
    <path d="M 12 12 L 16 16" stroke="white" stroke-width="2" opacity="0.8"/>
  </g>
  
  <!-- RGB text indicators -->
  <g transform="translate(350, 50)">
    <text x="0" y="0" font-family="Arial, sans-serif" font-size="14" font-weight="bold" fill="#ff6b6b">R</text>
    <text x="0" y="15" font-family="Arial, sans-serif" font-size="14" font-weight="bold" fill="#4ecdc4">G</text>
    <text x="0" y="30" font-family="Arial, sans-serif" font-size="14" font-weight="bold" fill="#45b7d1">B</text>
  </g>
  
  <!-- Main title -->
  <text x="200" y="40" text-anchor="middle" font-family="Arial, sans-serif" font-size="24" font-weight="bold" fill="white" filter="url(#textShadow)">Color Picker</text>
  
  <!-- Subtitle -->
  <text x="200" y="170" text-anchor="middle" font-family="Arial, sans-serif" font-size="16" font-weight="normal" fill="white" opacity="0.9" filter="url(#textShadow)">Tool</text>
  
  <!-- Feature text -->
  <text x="200" y="185" text-anchor="middle" font-family="Arial, sans-serif" font-size="10" fill="white" opacity="0.8">HEX • RGB • HSL • Color Palette Generator</text>
  
  <!-- Corner accent dots -->
  <circle cx="30" cy="30" r="2" fill="white" opacity="0.4"/>
  <circle cx="370" cy="30" r="2" fill="white" opacity="0.4"/>
  <circle cx="30" cy="170" r="2" fill="white" opacity="0.4"/>
  <circle cx="370" cy="170" r="2" fill="white" opacity="0.4"/>
  
  <!-- Connecting lines for visual flow -->
  <g stroke="white" stroke-width="1" opacity="0.2" fill="none">
    <line x1="145" y1="85" x2="175" y2="85"/>
    <line x1="225" y1="85" x2="255" y2="85"/>
  </g>
</svg>
